<svg version="1.0" xmlns="http://www.w3.org/2000/svg" width="300.000000pt" height="300.000000pt"
    viewBox="0 0 300.000000 300.000000" preserveAspectRatio="xMidYMid meet">
    <g transform="translate(0.000000,300.000000) scale(0.100000,-0.100000)" fill="#2b4474"
        stroke="none">
        <path d="M526 2573 l121 -123 54 1 54 2 -57 6 c-58 6 -58 7 -176 121 l-117 115 121 -122z" />
        <path
            d="M2465 2580 l-120 -120 -60 0 -61 0 -64 -67 -65 -68 65 63 66 62 61 0 62 0 121 121 c66 67 119 123 117 125 -1 2 -57 -51 -122 -116z" />
        <path
            d="M330 2570 c0 -26 4 -30 28 -30 21 0 46 -19 112 -85 l85 -85 64 0 c47 0 70 -5 85 -17 21 -18 21 -18 2 5 -16 19 -29 22 -86 22 l-66 0 -83 85 c-69 70 -83 89 -79 110 5 23 2 25 -28 25 -31 0 -34 -3 -34 -30z" />
        <path
            d="M2600 2572 c0 -21 -19 -46 -83 -110 l-82 -82 -61 0 c-47 0 -65 -4 -75 -17 -11 -15 -11 -16 1 -5 8 7 40 12 75 12 l60 0 85 85 c65 65 91 85 113 85 23 0 27 4 27 30 0 27 -3 30 -30 30 -26 0 -30 -4 -30 -28z" />
        <path
            d="M990 2560 c-24 -24 -25 -38 -4 -68 11 -17 24 -22 44 -20 23 2 43 -12 114 -80 l87 -82 269 0 269 0 87 82 c65 62 93 82 110 80 25 -4 64 29 64 53 0 21 -36 55 -58 55 -27 0 -54 -34 -51 -62 3 -18 -15 -41 -76 -100 l-80 -77 -265 0 -265 0 -80 77 c-61 59 -79 82 -76 100 3 28 -24 62 -51 62 -10 0 -27 -9 -38 -20z" />
        <path d="M75 2493 l80 -4 70 -67 70 -67 -70 73 -69 72 -81 -2 -80 -2 80 -3z" />
        <path d="M2780 2433 l-65 -68 65 62 65 62 80 4 80 3 -80 2 -81 2 -64 -67z" />
        <path
            d="M1150 2473 c8 -3 40 -28 70 -57 l55 -51 -55 58 c-30 31 -61 57 -70 56 -13 0 -13 -1 0 -6z" />
        <path d="M1770 2423 l-55 -58 55 52 c30 28 64 53 75 56 20 5 20 5 0 6 -13 1 -41 -21 -75 -56z" />
        <path
            d="M815 2400 c33 -33 62 -60 64 -60 3 0 -21 27 -54 60 -33 33 -62 60 -64 60 -3 0 21 -27 54 -60z" />
        <path
            d="M295 2340 c-15 -16 -17 -26 -9 -48 12 -36 66 -44 86 -13 12 20 21 21 253 21 l240 0 85 -85 85 -85 465 0 465 0 85 85 85 85 240 0 c232 0 241 -1 253 -21 20 -31 74 -23 86 13 19 53 -57 95 -86 48 -12 -19 -24 -20 -258 -20 l-245 0 -85 -85 -84 -85 -456 0 -456 0 -84 85 -85 85 -245 0 c-234 0 -246 1 -258 20 -16 26 -54 26 -77 0z m65 -19 c14 -28 -13 -55 -41 -41 -22 12 -25 30 -7 48 18 18 36 15 48 -7z m2328 7 c18 -18 15 -36 -7 -48 -28 -14 -55 13 -41 41 12 22 30 25 48 7z" />
        <path
            d="M1056 2283 l111 -4 38 -39 39 -40 256 0 256 0 39 40 38 39 111 4 111 3 -116 2 -117 2 -36 -40 -36 -40 -253 0 -253 0 -39 40 -39 40 -111 -2 -110 -2 111 -3z" />
        <path
            d="M475 2173 l90 -93 75 0 76 0 59 59 c45 47 66 61 94 64 l36 4 -38 1 c-35 2 -45 -4 -101 -58 l-63 -60 -69 0 -69 0 -90 88 -90 87 90 -92z" />
        <path
            d="M2520 2175 l-85 -85 -75 0 -76 0 -59 60 c-52 52 -64 60 -95 58 l-35 -1 36 -4 c28 -3 49 -17 94 -64 l59 -59 76 0 75 0 90 90 c49 50 87 90 85 90 -3 0 -43 -38 -90 -85z" />
        <path
            d="M1849 2193 c-12 -16 -12 -17 1 -6 9 6 36 13 60 16 l45 4 -46 1 c-34 2 -50 -3 -60 -15z" />
        <path
            d="M1068 2020 c-4 -28 -3 -30 29 -30 30 0 33 3 33 30 0 26 -3 30 -29 30 -24 0 -29 -5 -33 -30z" />
        <path
            d="M1870 2020 c0 -27 3 -30 30 -30 27 0 30 3 30 30 0 27 -3 30 -30 30 -27 0 -30 -3 -30 -30z" />
        <path
            d="M140 2010 c0 -27 3 -30 33 -30 29 0 32 3 32 30 1 27 -2 30 -32 30 -30 0 -33 -3 -33 -30z" />
        <path
            d="M2790 2010 c0 -27 3 -30 30 -30 27 0 30 3 30 30 0 27 -3 30 -30 30 -27 0 -30 -3 -30 -30z" />
        <path
            d="M276 2013 c60 -4 61 -4 129 -73 l69 -70 237 0 c214 0 238 2 250 18 11 14 11 15 -1 5 -10 -10 -75 -13 -250 -13 l-236 0 -69 70 -69 70 -61 -2 -60 -2 61 -3z" />
        <path
            d="M2585 1950 l-69 -70 -231 0 c-171 0 -235 3 -245 13 -12 10 -12 9 -1 -5 12 -16 36 -18 245 -18 l232 0 69 70 69 69 65 4 66 3 -65 2 -66 2 -69 -70z" />
        <path d="M1323 2003 c26 -2 68 -2 95 0 26 2 4 3 -48 3 -52 0 -74 -1 -47 -3z" />
        <path
            d="M892 1988 c-15 -15 -15 -51 0 -66 17 -17 55 -15 66 3 7 14 74 16 542 16 468 0 535 -2 542 -16 11 -18 49 -20 66 -3 15 15 15 51 0 66 -18 18 -46 14 -65 -8 -17 -20 -29 -20 -543 -20 -511 1 -527 1 -543 20 -19 23 -47 26 -65 8z" />
        <path
            d="M1080 1835 l-85 -85 -265 0 -265 0 -90 -92 -90 -93 90 88 90 87 265 0 265 0 90 90 c49 50 87 90 85 90 -3 0 -43 -38 -90 -85z" />
        <path
            d="M1135 1820 l-100 -100 -240 0 -241 0 -44 -44 c-32 -33 -53 -46 -79 -49 l-36 -4 35 -1 c30 -2 43 5 80 43 l44 45 241 0 240 0 105 105 c58 58 102 105 100 105 -3 0 -50 -45 -105 -100z" />
        <path
            d="M1855 1812 l100 -102 238 0 239 0 50 -45 c39 -35 57 -45 82 -43 l31 1 -31 4 c-20 3 -46 19 -75 49 l-43 44 -243 0 -242 0 -68 68 c-38 37 -84 80 -103 97 -19 16 10 -16 65 -73z" />
        <path
            d="M1910 1827 l85 -87 265 0 265 0 84 -82 c47 -46 78 -74 70 -63 -8 11 -45 50 -83 87 l-68 68 -267 0 -267 0 -35 40 c-19 22 -56 59 -84 82 -34 27 -22 13 35 -45z" />
        <path
            d="M952 1600 l-73 -80 -245 0 c-231 0 -245 1 -264 20 -27 27 -56 25 -76 -5 -31 -48 15 -101 62 -70 13 8 24 20 24 25 0 6 94 10 250 10 l250 0 76 80 77 80 467 0 467 0 77 -80 76 -80 250 0 c156 0 250 -4 250 -10 0 -5 11 -17 24 -25 47 -31 93 22 62 70 -20 30 -49 32 -76 5 -19 -19 -33 -20 -264 -20 l-245 0 -72 80 -73 80 -475 0 -476 0 -73 -80z m-592 -79 c14 -28 -13 -55 -41 -41 -22 12 -25 30 -7 48 18 18 36 15 48 -7z m2328 7 c18 -18 15 -36 -7 -48 -28 -14 -55 13 -41 41 12 22 30 25 48 7z" />
        <path
            d="M30 1555 c8 -8 154 -140 325 -294 l310 -280 105 2 105 1 -101 3 -101 4 -321 289 c-176 160 -324 290 -329 290 -4 0 -1 -7 7 -15z" />
        <path
            d="M210 1526 c0 -38 3 -40 35 -26 18 8 18 9 2 9 -19 1 -19 26 1 26 5 0 14 3 18 8 4 4 0 7 -9 7 -8 0 -22 3 -31 6 -13 5 -16 -1 -16 -30z" />
        <path
            d="M2750 1550 c-17 -5 -19 -8 -7 -9 19 -1 24 -31 5 -31 -9 0 -8 -4 2 -10 28 -18 40 -11 40 25 0 37 -1 38 -40 25z" />
        <path
            d="M1142 1417 c-70 -71 -87 -83 -110 -79 -37 5 -67 -27 -58 -63 16 -62 113 -47 104 16 -4 27 5 39 79 109 l84 80 259 0 259 0 84 -80 c74 -70 83 -82 79 -109 -9 -63 88 -78 104 -16 9 36 -21 68 -58 63 -23 -4 -40 8 -110 79 l-83 83 -275 0 -275 0 -83 -83z" />
        <path
            d="M21 1464 c0 -5 145 -138 321 -296 l321 -288 106 2 106 2 -103 3 -104 4 -306 276 c-363 327 -342 308 -341 297z" />
        <path
            d="M21 1363 c2 -6 149 -142 326 -302 l322 -291 103 2 103 2 -102 5 -102 6 -277 250 c-153 138 -300 270 -327 295 -28 25 -48 40 -46 33z" />
        <path
            d="M45 1231 c17 -16 163 -149 325 -295 l295 -266 131 0 c129 0 132 0 148 -25 28 -43 106 -23 106 26 0 55 -76 80 -106 34 -16 -25 -19 -25 -144 -25 l-127 0 -322 290 c-177 160 -325 290 -329 290 -3 0 7 -13 23 -29z m980 -531 c27 -30 7 -70 -35 -70 -42 0 -62 40 -35 70 10 11 26 20 35 20 9 0 25 -9 35 -20z" />
        <path
            d="M20 1156 c0 -7 -15 6 352 -325 l293 -263 649 1 c357 1 652 3 654 6 3 3 -289 5 -649 5 l-654 1 -265 240 c-314 285 -380 343 -380 335z" />
        <path
            d="M1368 1144 c-76 -23 -118 -91 -118 -192 0 -124 110 -204 212 -153 37 18 44 19 58 6 35 -31 42 -19 39 67 -3 58 0 83 9 86 33 11 4 22 -58 22 -40 0 -70 -4 -70 -10 0 -5 7 -10 15 -10 12 0 15 -13 15 -60 0 -54 -2 -60 -20 -60 -12 0 -34 7 -49 15 -78 40 -74 219 5 272 20 13 23 11 54 -37 18 -27 35 -50 39 -50 3 0 19 12 34 26 24 21 27 27 16 40 -35 42 -114 59 -181 38z m-58 -187 c0 -18 9 -50 20 -72 23 -46 21 -52 -9 -27 -24 18 -45 99 -35 127 10 24 24 7 24 -28z" />
        <path
            d="M880 1140 c0 -5 7 -10 15 -10 13 0 15 -24 15 -160 0 -136 -2 -160 -15 -160 -8 0 -15 -4 -15 -10 0 -6 32 -10 75 -10 43 0 75 4 75 10 0 6 -7 10 -15 10 -22 0 -22 115 0 124 11 4 25 -14 52 -69 l37 -75 68 0 c39 0 68 4 68 10 0 6 -8 10 -17 10 -11 0 -36 28 -63 68 -55 82 -55 82 -37 82 22 0 67 58 67 85 0 37 -19 70 -50 88 -22 13 -54 17 -144 17 -71 0 -116 -4 -116 -10z m163 -21 c65 -29 66 -128 2 -155 -19 -8 -37 -14 -40 -14 -3 0 -5 41 -5 90 0 50 4 90 10 90 5 0 20 -5 33 -11z m97 -49 c7 -14 8 -26 1 -38 -8 -13 -10 -14 -11 -2 0 8 -3 25 -6 38 -8 27 2 29 16 2z m-177 -142 l-11 -33 -1 45 c-1 33 2 41 11 32 8 -8 8 -20 1 -44z" />
        <path
            d="M1600 1140 c0 -5 7 -10 15 -10 13 0 15 -24 15 -160 0 -136 -2 -160 -15 -160 -8 0 -15 -4 -15 -10 0 -6 32 -10 75 -10 43 0 75 4 75 10 0 6 -7 10 -15 10 -12 0 -15 14 -15 63 0 89 21 86 68 -10 l36 -73 68 0 c39 0 68 4 68 10 0 6 -8 10 -17 10 -11 0 -36 28 -63 68 -55 82 -55 82 -37 82 22 0 67 58 67 85 0 37 -19 70 -50 88 -22 13 -54 17 -144 17 -71 0 -116 -4 -116 -10z m169 -25 c63 -32 57 -130 -9 -154 -18 -6 -35 -11 -36 -11 -2 0 -4 41 -4 90 0 56 4 90 10 90 6 0 24 -7 39 -15z" />
        <path
            d="M50 1018 c19 -18 166 -150 327 -295 l291 -263 297 0 298 0 23 -25 c31 -33 69 -33 91 1 15 23 15 29 2 52 -8 14 -24 29 -37 33 -19 7 -29 3 -54 -21 l-30 -30 -291 0 -292 0 -320 290 c-176 159 -324 289 -330 289 -5 0 6 -14 25 -31z m1320 -529 c9 -16 8 -26 -5 -45 -19 -29 -46 -31 -70 -4 -15 17 -16 24 -7 45 15 32 66 35 82 4z" />
        <path
            d="M2394 1015 c-13 -20 -25 -25 -72 -28 l-57 -3 56 -2 c48 -2 59 -6 73 -27 31 -47 106 -21 106 36 0 47 -79 66 -106 24z m88 -10 c9 -21 8 -28 -7 -45 -10 -11 -26 -20 -35 -20 -9 0 -25 9 -35 20 -27 30 -7 70 35 70 23 0 33 -6 42 -25z" />
        <path
            d="M1980 981 c0 -6 18 -11 40 -13 l39 -3 -39 -52 c-22 -28 -40 -55 -40 -60 0 -4 25 -8 55 -8 30 0 55 3 55 8 0 4 -18 7 -40 7 -22 0 -40 3 -40 6 0 3 18 29 40 56 22 28 40 55 40 59 0 5 -25 9 -55 9 -30 0 -55 -4 -55 -9z" />
        <path
            d="M2128 949 c-10 -5 -18 -15 -18 -21 0 -9 3 -9 12 0 15 15 48 16 48 1 0 -5 -13 -15 -30 -20 -22 -8 -30 -17 -30 -35 0 -25 1 -26 50 -28 29 -1 30 0 30 46 0 37 -4 50 -19 58 -23 12 -22 12 -43 -1z m42 -64 c0 -19 -24 -30 -41 -19 -9 5 -7 11 6 21 24 17 35 17 35 -2z" />
        <path
            d="M2230 940 c-24 -24 -25 -48 -4 -78 19 -27 45 -28 69 -2 16 18 16 20 2 20 -10 0 -17 -5 -17 -11 0 -6 -10 -9 -22 -7 -28 4 -37 48 -13 68 13 11 19 10 34 -4 12 -11 21 -13 25 -7 6 9 -30 41 -46 41 -5 0 -17 -9 -28 -20z" />
        <path
            d="M50 918 c19 -20 165 -154 325 -297 l289 -261 146 2 145 2 -145 3 -145 4 -50 48 c-67 65 -555 502 -580 520 -11 8 -4 -2 15 -21z" />
        <path
            d="M2591 864 l-103 -84 -99 0 c-84 0 -102 3 -118 19 -25 25 -59 17 -67 -15 -12 -48 53 -77 76 -34 10 19 18 20 108 14 l97 -6 108 87 c59 48 107 91 107 96 0 12 6 17 -109 -77z m-321 -89 c0 -31 -26 -43 -47 -22 -21 21 -9 47 22 47 20 0 25 -5 25 -25z" />
        <path d="M2226 781 c-7 -11 18 -33 27 -24 4 3 7 12 7 20 0 15 -26 18 -34 4z" />
        <path
            d="M1603 753 c-20 -7 -15 -31 7 -43 27 -14 25 -30 -2 -30 -18 0 -20 -2 -9 -9 20 -13 41 -2 41 21 0 11 -8 22 -20 25 -26 7 -26 23 1 23 11 0 17 5 14 10 -7 11 -13 11 -32 3z" />
        <path
            d="M1673 745 c-6 -11 -13 -32 -17 -48 -6 -26 -5 -27 14 -15 17 11 22 10 30 -2 9 -13 10 -13 9 0 0 8 -6 31 -13 50 -12 32 -14 33 -23 15z" />
        <path
            d="M1727 753 c-14 -13 -6 -41 13 -46 27 -7 25 -27 -2 -27 -18 0 -20 -2 -9 -9 20 -13 41 -2 41 21 0 11 -8 22 -20 25 -26 7 -26 23 1 23 11 0 17 5 14 10 -7 11 -28 13 -38 3z" />
        <path
            d="M1890 745 c0 -8 -9 -15 -19 -15 -10 0 -21 -7 -25 -15 -9 -25 4 -45 30 -45 22 0 24 4 24 45 0 25 -2 45 -5 45 -3 0 -5 -7 -5 -15z m0 -45 c0 -11 -7 -20 -15 -20 -8 0 -15 9 -15 20 0 11 7 20 15 20 8 0 15 -9 15 -20z" />
        <path
            d="M2053 753 c-18 -7 -16 -68 2 -83 8 -6 20 -8 26 -4 9 5 6 10 -9 15 -30 11 -32 64 -2 56 13 -3 20 0 20 9 0 14 -14 17 -37 7z" />
        <path
            d="M2100 753 c0 -21 22 -83 29 -83 9 0 33 82 26 89 -3 2 -7 -5 -11 -15 -15 -48 -17 -49 -26 -16 -8 29 -18 43 -18 25z" />
        <path
            d="M1914 715 c-10 -24 4 -45 28 -44 22 0 22 1 3 9 -17 7 -17 9 -2 9 25 1 23 41 -3 41 -11 0 -23 -7 -26 -15z" />
    </g>
</svg> 